<svg width="760" height="697" viewBox="0 0 760 697" fill="none" xmlns="http://www.w3.org/2000/svg">
<rect x="1.94946" width="758.051" height="693.013" fill="#62786B"/>
<path d="M1.94946 209.762C64.8424 211.39 204.493 253.096 259.953 406.898C315.414 560.7 430.686 600.818 481.389 601.652C516.25 597.205 591.094 580.759 611.582 550.551C632.07 520.344 717.476 511.998 757.618 511.601" stroke="#70B88D" stroke-width="126"/>
<path d="M14 236C75.8815 237.628 213.287 279.328 267.855 433.106C322.423 586.885 435.841 626.996 485.73 627.83C520.03 623.384 593.671 606.94 613.829 576.737C633.987 546.534 718.02 538.19 757.516 537.793" stroke="#577965" stroke-width="126"/>
<path d="M9 236C70.8815 237.628 208.287 279.328 262.855 433.106C317.423 586.885 430.841 626.996 480.73 627.83C515.03 623.384 588.671 606.94 608.829 576.737C628.987 546.534 713.02 538.19 752.516 537.793" stroke="#498762" stroke-opacity="0.67" stroke-width="126"/>
<path d="M1.94946 167.238C64.8424 168.866 204.493 210.572 259.953 364.374C315.414 518.176 430.686 558.294 481.389 559.128C516.25 554.681 591.094 538.235 611.582 508.027C632.07 477.82 717.476 469.474 757.618 469.077" stroke="#759D86" stroke-opacity="0.46" stroke-width="126"/>
<path fill-rule="evenodd" clip-rule="evenodd" d="M760 91.1429V272.159C748.053 277.307 734.884 280.159 721.049 280.159C666.645 280.159 622.541 236.056 622.541 181.651C622.541 127.246 666.645 83.1426 721.049 83.1426C734.884 83.1426 748.053 85.9946 760 91.1429Z" fill="#F3FAD3" fill-opacity="0.74"/>
<path fill-rule="evenodd" clip-rule="evenodd" d="M217.41 696.587L36.3934 696.587C31.2451 684.64 28.393 671.471 28.393 657.636C28.393 603.231 72.4967 559.128 126.901 559.128C181.306 559.128 225.41 603.231 225.41 657.636C225.41 671.471 222.558 684.64 217.41 696.587Z" fill="#F3FAD3" fill-opacity="0.74"/>
</svg>
